<svg viewBox="0 0 512 512" xmlns="http://www.w3.org/2000/svg" xmlns:xlink="http://www.w3.org/1999/xlink"><linearGradient id="a" gradientTransform="matrix(1 0 0 -1 0 -19430)" gradientUnits="userSpaceOnUse" x1="0" x2="512" y1="-19686" y2="-19686"><stop offset="0" stop-color="#00f1ff"/><stop offset=".231" stop-color="#00d8ff"/><stop offset=".5138" stop-color="#00c0ff"/><stop offset=".7773" stop-color="#00b2ff"/><stop offset="1" stop-color="#00adff"/></linearGradient><path d="m512 256c0 141.386719-114.613281 256-256 256s-256-114.613281-256-256 114.613281-256 256-256 256 114.613281 256 256zm0 0" fill="url(#a)"/><path d="m178.824219 433.585938c-.070313 0-.144531 0-.21875 0-27.117188-.148438-49.179688-22.539063-49.179688-49.914063v-254.742187c0-18.109376 9.4375-34.195313 25.25-43.03125 15.8125-8.832032 34.457031-8.4375 49.882813 1.058593l207.574218 127.953125c14.710938 9.054688 23.476563 24.785156 23.441407 42.070313-.035157 17.285156-8.863281 32.980469-23.621094 41.980469l-150.058594 91.875c-7.0625 4.324218-16.296875 2.105468-20.625-4.957032-4.324219-7.066406-2.105469-16.300781 4.960938-20.628906l150.078125-91.890625c5.882812-3.585937 9.253906-9.574219 9.265625-16.441406.015625-6.863281-3.332031-12.867188-9.175781-16.46875l-207.574219-127.953125c-6.03125-3.710938-13.328125-3.863282-19.515625-.40625-6.1875 3.457031-9.882813 9.753906-9.882813 16.839844v254.742187c0 11.847656 10.003907 19.863281 19.34375 19.914063 2.960938-.003907 6.441407-1.121094 9.992188-3.289063 7.074219-4.3125 16.304687-2.078125 20.617187 4.992187 4.316406 7.070313 2.082032 16.304688-4.992187 20.617188-8.234375 5.027344-17.070313 7.679688-25.5625 7.679688zm0 0" fill="#fff"/></svg>